name ./resultDataOpenSim/trcMotMarkerGrf/sub10/grf-02-07.mot
datacolumns 19
datarows 12
range 0.51200000 0.55600000
endheader

                time	     ground_force_vx	     ground_force_vy	     ground_force_vz	     ground_force_px	     ground_force_py	     ground_force_pz	   l_ground_force_vx	   l_ground_force_vy	   l_ground_force_vz	   l_ground_force_px	   l_ground_force_py	   l_ground_force_pz	     ground_torque_x	     ground_torque_y	     ground_torque_z	   l_ground_torque_x	   l_ground_torque_y	   l_ground_torque_z	
          0.51200000	         36.21351850	        518.51108692	        -32.63610340	         -0.77085333	          0.00000000	          0.03695923	          0.00000000	          0.00000000	          0.00000000	          0.00000000	          0.00000000	          0.00000000	          0.00000000	          3.41847500	          0.00000000	          0.00000000	          0.00000000	          0.00000000	
          0.51600000	         38.97994076	        523.29739016	        -34.25356050	         -0.76909396	          0.00000000	          0.03706278	          0.00000000	          0.00000000	          0.00000000	          0.00000000	          0.00000000	          0.00000000	          0.00000000	          3.32327568	          0.00000000	          0.00000000	          0.00000000	          0.00000000	
          0.52000000	         41.82886838	        528.69326463	        -35.75111888	         -0.76732084	          0.00000000	          0.03716029	          0.00000000	          0.00000000	          0.00000000	          0.00000000	          0.00000000	          0.00000000	          0.00000000	          3.23598879	          0.00000000	          0.00000000	          0.00000000	          0.00000000	
          0.52400000	         44.50983103	        534.84875429	        -37.06428505	         -0.76551634	          0.00000000	          0.03724106	          0.00000000	          0.00000000	          0.00000000	          0.00000000	          0.00000000	          0.00000000	          0.00000000	          3.16533030	          0.00000000	          0.00000000	          0.00000000	          0.00000000	
          0.52800000	         46.85424352	        541.91259263	        -38.18195744	         -0.76368425	          0.00000000	          0.03729697	          0.00000000	          0.00000000	          0.00000000	          0.00000000	          0.00000000	          0.00000000	          0.00000000	          3.11490382	          0.00000000	          0.00000000	          0.00000000	          0.00000000	
          0.53200000	         48.81248898	        550.00691727	        -39.14013700	         -0.76183793	          0.00000000	          0.03732310	          0.00000000	          0.00000000	          0.00000000	          0.00000000	          0.00000000	          0.00000000	          0.00000000	          3.08252265	          0.00000000	          0.00000000	          0.00000000	          0.00000000	
          0.53600000	         50.45765533	        559.21576410	        -40.00372433	         -0.75999786	          0.00000000	          0.03731377	          0.00000000	          0.00000000	          0.00000000	          0.00000000	          0.00000000	          0.00000000	          0.00000000	          3.06084008	          0.00000000	          0.00000000	          0.00000000	          0.00000000	
          0.54000000	         51.95962320	        569.59057080	        -40.84453254	         -0.75819748	          0.00000000	          0.03726361	          0.00000000	          0.00000000	          0.00000000	          0.00000000	          0.00000000	          0.00000000	          0.00000000	          3.03927165	          0.00000000	          0.00000000	          0.00000000	          0.00000000	
          0.54400000	         53.53627508	        581.15839193	        -41.72237013	         -0.75647882	          0.00000000	          0.03717191	          0.00000000	          0.00000000	          0.00000000	          0.00000000	          0.00000000	          0.00000000	          0.00000000	          3.00676133	          0.00000000	          0.00000000	          0.00000000	          0.00000000	
          0.54800000	         55.39561993	        593.91773303	        -42.67086238	         -0.75488452	          0.00000000	          0.03704133	          0.00000000	          0.00000000	          0.00000000	          0.00000000	          0.00000000	          0.00000000	          0.00000000	          2.95464141	          0.00000000	          0.00000000	          0.00000000	          0.00000000	
          0.55200000	         57.68676275	        607.82535668	        -43.68768625	         -0.75345019	          0.00000000	          0.03687374	          0.00000000	          0.00000000	          0.00000000	          0.00000000	          0.00000000	          0.00000000	          0.00000000	          2.87882421	          0.00000000	          0.00000000	          0.00000000	          0.00000000	
          0.55600000	         60.47408381	        622.79178617	        -44.72995194	         -0.75219698	          0.00000000	          0.03667037	          0.00000000	          0.00000000	          0.00000000	          0.00000000	          0.00000000	          0.00000000	          0.00000000	          2.78082831	          0.00000000	          0.00000000	          0.00000000	          0.00000000	
